<svg xmlns="http://www.w3.org/2000/svg" xmlns:xlink="http://www.w3.org/1999/xlink" version="1.1" width="256" height="256" viewBox="0 0 256 256" xml:space="preserve">

<defs>
</defs>
<g style="stroke: none; stroke-width: 0; stroke-dasharray: none; stroke-linecap: butt; stroke-linejoin: miter; stroke-miterlimit: 10; fill: none; fill-rule: nonzero; opacity: 1;" transform="translate(1.4065934065934016 1.4065934065934016) scale(2.81 2.81)" >
	<path d="M 88.5 71.873 h -87 c -0.829 0 -1.5 -0.672 -1.5 -1.5 s 0.671 -1.5 1.5 -1.5 h 87 c 0.828 0 1.5 0.672 1.5 1.5 S 89.328 71.873 88.5 71.873 z" style="stroke: none; stroke-width: 1; stroke-dasharray: none; stroke-linecap: butt; stroke-linejoin: miter; stroke-miterlimit: 10; fill: rgb(0,0,0); fill-rule: nonzero; opacity: 1;" transform=" matrix(1 0 0 1 0 0) " stroke-linecap="round" />
	<polygon points="88.5,70.37 47.05,19.63 24.84,50.71 19.52,45.53 1.5,70.37 " style="stroke: none; stroke-width: 1; stroke-dasharray: none; stroke-linecap: butt; stroke-linejoin: miter; stroke-miterlimit: 10; fill: rgb(28,165,111); fill-rule: nonzero; opacity: 1;" transform="  matrix(1 0 0 1 0 0) "/>
	<path d="M 88.5 71.873 h -87 c -0.564 0 -1.08 -0.316 -1.336 -0.818 c -0.256 -0.503 -0.209 -1.106 0.122 -1.563 l 18.022 -24.844 c 0.256 -0.353 0.652 -0.576 1.086 -0.614 c 0.433 -0.036 0.862 0.116 1.175 0.42 l 4.067 3.959 l 21.195 -29.659 c 0.272 -0.38 0.705 -0.612 1.172 -0.627 c 0.464 -0.018 0.914 0.188 1.21 0.55 l 41.449 50.746 c 0.366 0.449 0.441 1.068 0.193 1.592 C 89.606 71.539 89.079 71.873 88.5 71.873 z M 4.441 68.873 h 80.896 L 47.13 22.095 L 26.061 51.578 c -0.254 0.355 -0.651 0.583 -1.086 0.622 c -0.438 0.038 -0.867 -0.114 -1.18 -0.419 l -4.076 -3.968 L 4.441 68.873 z" style="stroke: none; stroke-width: 1; stroke-dasharray: none; stroke-linecap: butt; stroke-linejoin: miter; stroke-miterlimit: 10; fill: rgb(28,165,111); fill-rule: nonzero; opacity: 1;" transform=" matrix(1 0 0 1 0 0) " stroke-linecap="round" />
	<path d="M 59.395 33.74 L 47.051 18.627 L 36.229 33.77 l 3.377 2.891 c 1.312 1.123 3.214 1.225 4.638 0.248 l 0.913 -0.626 c 1.311 -0.899 3.042 -0.891 4.344 0.02 l 1.305 0.913 c 1.407 0.984 3.298 0.907 4.62 -0.188 L 59.395 33.74 z" style="stroke: none; stroke-width: 1; stroke-dasharray: none; stroke-linecap: butt; stroke-linejoin: miter; stroke-miterlimit: 10; fill: rgb(249,249,249); fill-rule: nonzero; opacity: 1;" transform=" matrix(1 0 0 1 0 0) " stroke-linecap="round" />
	<path d="M 52.99 39.401 c -1.063 0 -2.13 -0.316 -3.044 -0.956 l -1.305 -0.913 c -0.788 -0.55 -1.848 -0.553 -2.636 -0.012 l -0.914 0.626 c -1.981 1.358 -4.638 1.215 -6.462 -0.346 l -3.376 -2.892 c -0.591 -0.505 -0.697 -1.379 -0.245 -2.011 l 10.822 -15.144 c 0.272 -0.38 0.705 -0.612 1.172 -0.627 c 0.464 -0.018 0.914 0.188 1.21 0.55 l 12.345 15.113 c 0.521 0.638 0.43 1.578 -0.205 2.104 l -3.969 3.288 C 55.407 38.992 54.2 39.401 52.99 39.401 z M 47.313 34.12 c 1.069 0 2.138 0.318 3.047 0.955 l 1.305 0.913 c 0.852 0.596 2.006 0.547 2.805 -0.115 l 2.821 -2.337 L 47.13 21.095 l -8.882 12.429 l 2.333 1.998 c 0.795 0.681 1.953 0.742 2.815 0.15 l 0.913 -0.626 C 45.209 34.429 46.262 34.12 47.313 34.12 z" style="stroke: none; stroke-width: 1; stroke-dasharray: none; stroke-linecap: butt; stroke-linejoin: miter; stroke-miterlimit: 10; fill: rgb(249,249,249); fill-rule: nonzero; opacity: 1;" transform=" matrix(1 0 0 1 0 0) " stroke-linecap="round" />
	<circle cx="61.019999999999996" cy="53.49" r="10.22" style="stroke: none; stroke-width: 1; stroke-dasharray: none; stroke-linecap: butt; stroke-linejoin: miter; stroke-miterlimit: 10; fill: rgb(188,234,115); fill-rule: nonzero; opacity: 1;" transform="  matrix(1 0 0 1 0 0) "/>
	<path d="M 61.021 65.215 c -6.463 0 -11.721 -5.258 -11.721 -11.72 c 0 -6.463 5.258 -11.721 11.721 -11.721 s 11.721 5.258 11.721 11.721 C 72.742 59.957 67.484 65.215 61.021 65.215 z M 61.021 44.774 c -4.809 0 -8.721 3.912 -8.721 8.721 c 0 4.808 3.912 8.72 8.721 8.72 s 8.721 -3.912 8.721 -8.72 C 69.742 48.687 65.83 44.774 61.021 44.774 z" style="stroke: none; stroke-width: 1; stroke-dasharray: none; stroke-linecap: butt; stroke-linejoin: miter; stroke-miterlimit: 10; fill: rgb(188,234,115); fill-rule: nonzero; opacity: 1;" transform=" matrix(1 0 0 1 0 0) " stroke-linecap="round" />
	<path d="M 61.021 71.873 c -0.828 0 -1.5 -0.672 -1.5 -1.5 V 52.037 c 0 -0.828 0.672 -1.5 1.5 -1.5 s 1.5 0.672 1.5 1.5 v 18.336 C 62.521 71.201 61.85 71.873 61.021 71.873 z" style="stroke: none; stroke-width: 1; stroke-dasharray: none; stroke-linecap: butt; stroke-linejoin: miter; stroke-miterlimit: 10; fill: rgb(163,204,98); fill-rule: nonzero; opacity: 1;" transform=" matrix(1 0 0 1 0 0) " stroke-linecap="round" />
	<path d="M 61.021 60.406 c -0.384 0 -0.768 -0.146 -1.061 -0.439 c -0.586 -0.586 -0.586 -1.536 0 -2.121 l 1.954 -1.953 c 0.586 -0.586 1.535 -0.586 2.121 0 s 0.586 1.536 0 2.121 l -1.954 1.953 C 61.789 60.26 61.405 60.406 61.021 60.406 z" style="stroke: none; stroke-width: 1; stroke-dasharray: none; stroke-linecap: butt; stroke-linejoin: miter; stroke-miterlimit: 10; fill: rgb(163,204,98); fill-rule: nonzero; opacity: 1;" transform=" matrix(1 0 0 1 0 0) " stroke-linecap="round" />
	<path d="M 61.021 58.168 c -0.384 0 -0.768 -0.146 -1.061 -0.439 l -1.954 -1.954 c -0.586 -0.586 -0.586 -1.535 0 -2.121 s 1.535 -0.586 2.121 0 l 1.954 1.954 c 0.586 0.586 0.586 1.535 0 2.121 C 61.789 58.021 61.405 58.168 61.021 58.168 z" style="stroke: none; stroke-width: 1; stroke-dasharray: none; stroke-linecap: butt; stroke-linejoin: miter; stroke-miterlimit: 10; fill: rgb(163,204,98); fill-rule: nonzero; opacity: 1;" transform=" matrix(1 0 0 1 0 0) " stroke-linecap="round" />
	<path d="M 76.042 20.736 c 4.13 5.046 9.518 16.946 9.518 27.868 c 0 5.257 -4.261 9.518 -9.518 9.518 c -5.257 0 -9.518 -4.261 -9.518 -9.518 C 66.524 37.683 71.912 25.782 76.042 20.736 z" style="stroke: none; stroke-width: 1; stroke-dasharray: none; stroke-linecap: butt; stroke-linejoin: miter; stroke-miterlimit: 10; fill: rgb(153,213,59); fill-rule: nonzero; opacity: 1;" transform=" matrix(1 0 0 1 0 0) " stroke-linecap="round" />
	<path d="M 76.042 59.622 c -6.075 0 -11.019 -4.942 -11.019 -11.018 c 0 -11.569 5.765 -23.817 9.857 -28.819 c 0.57 -0.696 1.752 -0.696 2.322 0 c 4.093 5.001 9.856 17.249 9.856 28.819 C 87.06 54.68 82.117 59.622 76.042 59.622 z M 76.042 23.246 c -3.653 5.335 -8.019 15.591 -8.019 25.358 c 0 4.421 3.597 8.018 8.019 8.018 c 4.421 0 8.018 -3.597 8.018 -8.018 C 84.06 38.836 79.694 28.581 76.042 23.246 z" style="stroke: none; stroke-width: 1; stroke-dasharray: none; stroke-linecap: butt; stroke-linejoin: miter; stroke-miterlimit: 10; fill: rgb(153,213,59); fill-rule: nonzero; opacity: 1;" transform=" matrix(1 0 0 1 0 0) " stroke-linecap="round" />
	<path d="M 76.042 71.873 c -0.828 0 -1.5 -0.672 -1.5 -1.5 V 40.781 c 0 -0.829 0.672 -1.5 1.5 -1.5 s 1.5 0.671 1.5 1.5 v 29.592 C 77.542 71.201 76.87 71.873 76.042 71.873 z" style="stroke: none; stroke-width: 1; stroke-dasharray: none; stroke-linecap: butt; stroke-linejoin: miter; stroke-miterlimit: 10; fill: rgb(133,186,50); fill-rule: nonzero; opacity: 1;" transform=" matrix(1 0 0 1 0 0) " stroke-linecap="round" />
	<path d="M 76.042 54.863 c -0.384 0 -0.768 -0.146 -1.061 -0.439 c -0.586 -0.586 -0.586 -1.535 0 -2.121 l 3.578 -3.579 c 0.586 -0.586 1.535 -0.586 2.121 0 c 0.586 0.585 0.586 1.535 0 2.121 l -3.578 3.579 C 76.81 54.717 76.426 54.863 76.042 54.863 z" style="stroke: none; stroke-width: 1; stroke-dasharray: none; stroke-linecap: butt; stroke-linejoin: miter; stroke-miterlimit: 10; fill: rgb(133,186,50); fill-rule: nonzero; opacity: 1;" transform=" matrix(1 0 0 1 0 0) " stroke-linecap="round" />
	<path d="M 76.042 50.762 c -0.384 0 -0.768 -0.146 -1.061 -0.439 l -3.579 -3.578 c -0.586 -0.586 -0.586 -1.536 0 -2.122 s 1.535 -0.586 2.121 0 l 3.579 3.579 c 0.586 0.586 0.586 1.535 0 2.121 C 76.81 50.615 76.426 50.762 76.042 50.762 z" style="stroke: none; stroke-width: 1; stroke-dasharray: none; stroke-linecap: butt; stroke-linejoin: miter; stroke-miterlimit: 10; fill: rgb(133,186,50); fill-rule: nonzero; opacity: 1;" transform=" matrix(1 0 0 1 0 0) " stroke-linecap="round" />
	<path d="M 14.997 70.373 c 0.368 -2.51 2.524 -4.439 5.136 -4.439 c 0.096 0 0.189 0.009 0.284 0.014 c 0.534 -2.303 2.593 -4.021 5.059 -4.021 c 0.801 0 1.556 0.186 2.234 0.51 c 0.911 -1.504 2.558 -2.513 4.445 -2.513 c 2.697 0 4.913 2.054 5.172 4.684 c 0.057 -0.002 0.113 -0.009 0.171 -0.009 c 2.87 0 5.197 2.327 5.197 5.197 c 0 0.195 -0.013 0.388 -0.034 0.578 H 14.997 z" style="stroke: none; stroke-width: 1; stroke-dasharray: none; stroke-linecap: butt; stroke-linejoin: miter; stroke-miterlimit: 10; fill: rgb(153,213,59); fill-rule: nonzero; opacity: 1;" transform=" matrix(1 0 0 1 0 0) " stroke-linecap="round" />
	<path d="M 42.661 71.873 H 14.997 c -0.436 0 -0.85 -0.189 -1.135 -0.52 c -0.285 -0.329 -0.412 -0.767 -0.349 -1.198 c 0.438 -2.99 2.867 -5.307 5.808 -5.671 c 1.036 -2.438 3.424 -4.058 6.155 -4.058 c 0.578 0 1.146 0.074 1.698 0.221 c 1.257 -1.41 3.045 -2.224 4.98 -2.224 c 3.019 0 5.583 1.974 6.415 4.761 c 3.185 0.514 5.625 3.283 5.625 6.611 c 0 0.251 -0.016 0.499 -0.043 0.742 C 44.067 71.298 43.425 71.873 42.661 71.873 z M 17.216 68.873 h 23.861 c -0.411 -1.594 -1.86 -2.774 -3.581 -2.774 c -0.035 0.002 -0.137 0.009 -0.172 0.009 c -0.768 0 -1.417 -0.583 -1.492 -1.354 c -0.186 -1.898 -1.768 -3.33 -3.679 -3.33 c -1.301 0 -2.483 0.669 -3.162 1.79 c -0.399 0.661 -1.235 0.912 -1.931 0.576 c -0.504 -0.241 -1.038 -0.363 -1.586 -0.363 c -1.728 0 -3.208 1.176 -3.598 2.86 c -0.164 0.709 -0.817 1.188 -1.539 1.159 c -0.006 0 -0.099 -0.006 -0.105 -0.007 l -0.101 -0.005 C 18.965 67.435 17.899 67.995 17.216 68.873 z" style="stroke: none; stroke-width: 1; stroke-dasharray: none; stroke-linecap: butt; stroke-linejoin: miter; stroke-miterlimit: 10; fill: rgb(153,213,59); fill-rule: nonzero; opacity: 1;" transform=" matrix(1 0 0 1 0 0) " stroke-linecap="round" />
	<circle cx="14.528" cy="26.817999999999998" r="7.048" style="stroke: none; stroke-width: 1; stroke-dasharray: none; stroke-linecap: butt; stroke-linejoin: miter; stroke-miterlimit: 10; fill: rgb(237,204,67); fill-rule: nonzero; opacity: 1;" transform="  matrix(1 0 0 1 0 0) "/>
	<path d="M 14.524 35.363 c -4.713 0 -8.548 -3.834 -8.548 -8.548 s 3.834 -8.548 8.548 -8.548 s 8.548 3.834 8.548 8.548 S 19.237 35.363 14.524 35.363 z M 14.524 21.267 c -3.059 0 -5.548 2.489 -5.548 5.548 s 2.489 5.548 5.548 5.548 s 5.548 -2.489 5.548 -5.548 S 17.583 21.267 14.524 21.267 z" style="stroke: none; stroke-width: 1; stroke-dasharray: none; stroke-linecap: butt; stroke-linejoin: miter; stroke-miterlimit: 10; fill: rgb(237,204,67); fill-rule: nonzero; opacity: 1;" transform=" matrix(1 0 0 1 0 0) " stroke-linecap="round" />
</g>
</svg>